<svg id="레이어_1" data-name="레이어 1" xmlns="http://www.w3.org/2000/svg" xmlns:xlink="http://www.w3.org/1999/xlink" viewBox="0 0 3367.81 639.01"><defs><style>.cls-1,.cls-3{fill:none;}.cls-2{clip-path:url(#clip-path);}.cls-3{stroke:#c7e8fa;stroke-miterlimit:10;}.cls-4{fill:#171919;}.cls-5{fill:#707070;}.cls-6{fill:#333;}.cls-7{fill:#38a300;}.cls-8{fill:#666;}.cls-9{fill:#282828;}.cls-10{fill:#515151;}.cls-11{fill:#444;}.cls-12{fill:#5fd3d0;}</style><clipPath id="clip-path" transform="translate(1203.31 40.3)"><rect class="cls-1" width="960" height="560"/></clipPath></defs><title>isometric-grid</title><g id="grid"><g class="cls-2"><line class="cls-3" x1="0.22" y1="638.56" x2="1281.31" y2="0.45"/><line class="cls-3" x1="67.52" y1="638.56" x2="1348.61" y2="0.45"/><line class="cls-3" x1="134.82" y1="638.56" x2="1415.91" y2="0.45"/><line class="cls-3" x1="202.12" y1="638.56" x2="1483.21" y2="0.45"/><line class="cls-3" x1="269.42" y1="638.56" x2="1550.5" y2="0.45"/><line class="cls-3" x1="336.72" y1="638.56" x2="1617.8" y2="0.45"/><line class="cls-3" x1="404.02" y1="638.56" x2="1685.1" y2="0.45"/><line class="cls-3" x1="471.32" y1="638.56" x2="1752.4" y2="0.45"/><line class="cls-3" x1="538.62" y1="638.56" x2="1819.7" y2="0.45"/><line class="cls-3" x1="605.92" y1="638.56" x2="1887" y2="0.45"/><line class="cls-3" x1="673.22" y1="638.56" x2="1954.3" y2="0.45"/><line class="cls-3" x1="740.51" y1="638.56" x2="2021.6" y2="0.45"/><line class="cls-3" x1="807.81" y1="638.56" x2="2088.9" y2="0.45"/><line class="cls-3" x1="875.11" y1="638.56" x2="2156.2" y2="0.45"/><line class="cls-3" x1="942.41" y1="638.56" x2="2223.5" y2="0.45"/><line class="cls-3" x1="1009.71" y1="638.56" x2="2290.8" y2="0.45"/><line class="cls-3" x1="1077.01" y1="638.56" x2="2358.1" y2="0.45"/><line class="cls-3" x1="1144.31" y1="638.56" x2="2425.39" y2="0.45"/><line class="cls-3" x1="1211.61" y1="638.56" x2="2492.69" y2="0.45"/><line class="cls-3" x1="1278.91" y1="638.56" x2="2559.99" y2="0.45"/><line class="cls-3" x1="1346.21" y1="638.56" x2="2627.29" y2="0.45"/><line class="cls-3" x1="1413.51" y1="638.56" x2="2694.59" y2="0.45"/><line class="cls-3" x1="1480.81" y1="638.56" x2="2761.89" y2="0.45"/><line class="cls-3" x1="1548.11" y1="638.56" x2="2829.19" y2="0.45"/><line class="cls-3" x1="1615.4" y1="638.56" x2="2896.49" y2="0.45"/><line class="cls-3" x1="1682.7" y1="638.56" x2="2963.79" y2="0.45"/><line class="cls-3" x1="1750" y1="638.56" x2="3031.09" y2="0.45"/><line class="cls-3" x1="1817.3" y1="638.56" x2="3098.39" y2="0.45"/><line class="cls-3" x1="1884.6" y1="638.56" x2="3165.69" y2="0.45"/><line class="cls-3" x1="1951.9" y1="638.56" x2="3232.99" y2="0.45"/><line class="cls-3" x1="2019.2" y1="638.56" x2="3300.28" y2="0.45"/><line class="cls-3" x1="2086.5" y1="638.56" x2="3367.58" y2="0.45"/><line class="cls-3" x1="3367.58" y1="638.56" x2="2086.5" y2="0.45"/><line class="cls-3" x1="3300.28" y1="638.56" x2="2019.2" y2="0.45"/><line class="cls-3" x1="3232.99" y1="638.56" x2="1951.9" y2="0.45"/><line class="cls-3" x1="3165.69" y1="638.56" x2="1884.6" y2="0.45"/><line class="cls-3" x1="3098.39" y1="638.56" x2="1817.3" y2="0.45"/><line class="cls-3" x1="3031.09" y1="638.56" x2="1750" y2="0.45"/><line class="cls-3" x1="2963.79" y1="638.56" x2="1682.7" y2="0.45"/><line class="cls-3" x1="2896.49" y1="638.56" x2="1615.4" y2="0.45"/><line class="cls-3" x1="2829.19" y1="638.56" x2="1548.11" y2="0.45"/><line class="cls-3" x1="2761.89" y1="638.56" x2="1480.81" y2="0.45"/><line class="cls-3" x1="2694.59" y1="638.56" x2="1413.51" y2="0.45"/><line class="cls-3" x1="2627.29" y1="638.56" x2="1346.21" y2="0.45"/><line class="cls-3" x1="2559.99" y1="638.56" x2="1278.91" y2="0.45"/><line class="cls-3" x1="2492.69" y1="638.56" x2="1211.61" y2="0.45"/><line class="cls-3" x1="2425.39" y1="638.56" x2="1144.31" y2="0.45"/><line class="cls-3" x1="2358.1" y1="638.56" x2="1077.01" y2="0.45"/><line class="cls-3" x1="2290.8" y1="638.56" x2="1009.71" y2="0.45"/><line class="cls-3" x1="2223.5" y1="638.56" x2="942.41" y2="0.45"/><line class="cls-3" x1="2156.2" y1="638.56" x2="875.11" y2="0.45"/><line class="cls-3" x1="2088.9" y1="638.56" x2="807.81" y2="0.45"/><line class="cls-3" x1="2021.6" y1="638.56" x2="740.51" y2="0.45"/><line class="cls-3" x1="1954.3" y1="638.56" x2="673.22" y2="0.45"/><line class="cls-3" x1="1887" y1="638.56" x2="605.92" y2="0.45"/><line class="cls-3" x1="1819.7" y1="638.56" x2="538.62" y2="0.45"/><line class="cls-3" x1="1752.4" y1="638.56" x2="471.32" y2="0.45"/><line class="cls-3" x1="1685.1" y1="638.56" x2="404.02" y2="0.45"/><line class="cls-3" x1="1617.8" y1="638.56" x2="336.72" y2="0.45"/><line class="cls-3" x1="1550.5" y1="638.56" x2="269.42" y2="0.45"/><line class="cls-3" x1="1483.21" y1="638.56" x2="202.12" y2="0.45"/><line class="cls-3" x1="1415.91" y1="638.56" x2="134.82" y2="0.45"/><line class="cls-3" x1="1348.61" y1="638.56" x2="67.52" y2="0.45"/><line class="cls-3" x1="1281.31" y1="638.56" x2="0.22" y2="0.45"/></g></g><polygon class="cls-4" points="1640.38 56.12 1858.76 164.9 1859.75 470.83 1737.25 531.86 1520.91 424.1 1520.91 118.75 1640.38 56.12"/><g id="_2u" data-name="2u"><polygon class="cls-5" points="1745.36 454.64 1745.36 483.79 1745.36 484.53 1745.36 513.5 1853.27 459.69 1853.27 431.06 1853.27 429.72 1853.27 400.87 1745.36 454.64"/><polygon class="cls-6" points="1796.64 441.78 1796.64 479.23 1826.9 464.16 1826.9 426.63 1796.64 441.78"/><polygon class="cls-4" points="1593.76 378.67 1593.76 407.82 1593.76 408.6 1593.76 437.75 1745.36 513.5 1745.36 484.36 1745.36 483.79 1745.36 454.64 1593.76 378.67"/><polygon class="cls-6" points="1745.36 454.94 1853.27 400.87 1702.07 324.87 1593.76 378.97 1745.36 454.94"/><polygon class="cls-6" points="1751.38 464.23 1751.38 476.54 1790.97 456.82 1790.97 444.54 1751.38 464.23"/><polygon class="cls-6" points="1751.38 490.04 1751.38 502.05 1790.97 482.33 1790.97 470.31 1751.38 490.04"/><polygon class="cls-5" points="1799.98 444.29 1799.98 473.44 1823.56 461.7 1823.56 432.53 1799.98 444.29"/><path class="cls-7" d="M616.07,414.06a5.81,5.81,0,0,1-2.63,4.55c-1.45.84-2.63.16-2.63-1.52a5.81,5.81,0,0,1,2.63-4.55C614.89,411.71,616.07,412.38,616.07,414.06Z" transform="translate(1203.31 40.3)"/><path class="cls-7" d="M608.22,418.34a5.81,5.81,0,0,1-2.63,4.55c-1.45.84-2.63.16-2.63-1.52a5.81,5.81,0,0,1,2.63-4.55C607,416,608.22,416.66,608.22,418.34Z" transform="translate(1203.31 40.3)"/><path class="cls-7" d="M616.07,405a5.81,5.81,0,0,1-2.63,4.55c-1.45.84-2.63.16-2.63-1.52a5.81,5.81,0,0,1,2.63-4.55C614.89,402.6,616.07,403.28,616.07,405Z" transform="translate(1203.31 40.3)"/><path class="cls-7" d="M608.22,409.23a5.81,5.81,0,0,1-2.63,4.55c-1.45.84-2.63.16-2.63-1.52a5.81,5.81,0,0,1,2.63-4.55C607,406.88,608.22,407.55,608.22,409.23Z" transform="translate(1203.31 40.3)"/><polygon class="cls-6" points="1832.09 424.06 1832.09 436.35 1844.22 430.31 1844.22 418.02 1832.09 424.06"/><polygon class="cls-6" points="1832.09 439.1 1832.09 448.98 1844.22 442.94 1844.22 433.06 1832.09 439.1"/><polygon class="cls-6" points="1832.09 451.39 1832.09 461.22 1844.22 455.18 1844.22 445.35 1832.09 451.39"/></g><g id="_1u" data-name="1u"><polygon class="cls-5" points="1745.36 420.39 1745.36 450.1 1853.27 396.35 1853.27 366.6 1745.36 420.39"/><polygon class="cls-6" points="1794.82 403.05 1794.82 415.36 1806.94 409.31 1806.94 397.02 1794.82 403.05"/><polygon class="cls-6" points="1833.29 383.93 1833.29 396.2 1845.41 390.15 1845.41 377.87 1833.29 383.93"/><path class="cls-7" d="M625.49,353.81a5.81,5.81,0,0,1-2.63,4.55c-1.45.84-2.63.16-2.63-1.52a5.81,5.81,0,0,1,2.63-4.55C624.31,351.45,625.49,352.13,625.49,353.81Z" transform="translate(1203.31 40.3)"/><path class="cls-7" d="M617.65,358.09a5.81,5.81,0,0,1-2.63,4.55c-1.45.84-2.63.16-2.63-1.52a5.81,5.81,0,0,1,2.63-4.55C616.47,355.73,617.65,356.41,617.65,358.09Z" transform="translate(1203.31 40.3)"/><polygon class="cls-4" points="1745.36 420.39 1745.36 450.1 1593.76 374.35 1593.76 344.41 1745.36 420.39"/><polygon class="cls-6" points="1745.36 420.39 1853.27 366.6 1702.07 290.32 1593.76 344.41 1745.36 420.39"/><polygon class="cls-6" points="1751.38 424.7 1751.38 436.98 1790.97 417.27 1790.97 404.99 1751.38 424.7"/></g><g id="_1u-2" data-name="1u"><polygon class="cls-5" points="1745.36 385.77 1745.36 415.49 1853.27 361.74 1853.27 331.99 1745.36 385.77"/><polygon class="cls-6" points="1794.82 368.44 1794.82 380.75 1806.94 374.7 1806.94 362.41 1794.82 368.44"/><polygon class="cls-6" points="1833.29 349.31 1833.29 361.58 1845.41 355.54 1845.41 343.26 1833.29 349.31"/><path class="cls-7" d="M625.49,319.2a5.81,5.81,0,0,1-2.63,4.55c-1.45.84-2.63.16-2.63-1.52a5.81,5.81,0,0,1,2.63-4.55C624.31,316.84,625.49,317.52,625.49,319.2Z" transform="translate(1203.31 40.3)"/><path class="cls-7" d="M617.65,323.47A5.81,5.81,0,0,1,615,328c-1.45.84-2.63.16-2.63-1.52A5.81,5.81,0,0,1,615,322C616.47,321.12,617.65,321.8,617.65,323.47Z" transform="translate(1203.31 40.3)"/><polygon class="cls-4" points="1745.36 385.77 1745.36 415.49 1593.76 339.73 1593.76 309.8 1745.36 385.77"/><polygon class="cls-6" points="1745.36 385.77 1853.27 331.99 1702.07 255.71 1593.76 309.8 1745.36 385.77"/><polygon class="cls-6" points="1751.38 390.08 1751.38 402.37 1790.97 382.65 1790.97 370.38 1751.38 390.08"/></g><g id="_2u-2" data-name="2u"><polygon class="cls-5" points="1745.36 323.48 1745.36 352.63 1745.36 353.36 1745.36 382.34 1853.27 328.52 1853.27 299.89 1853.27 298.55 1853.27 269.7 1745.36 323.48"/><polygon class="cls-6" points="1796.64 310.61 1796.64 348.06 1826.9 333 1826.9 295.47 1796.64 310.61"/><polygon class="cls-4" points="1593.76 247.5 1593.76 276.65 1593.76 277.44 1593.76 306.59 1745.36 382.34 1745.36 353.19 1745.36 352.63 1745.36 323.48 1593.76 247.5"/><polygon class="cls-6" points="1745.36 323.77 1853.27 269.7 1702.07 193.71 1593.76 247.8 1745.36 323.77"/><polygon class="cls-6" points="1751.38 333.07 1751.38 345.38 1790.97 325.66 1790.97 313.38 1751.38 333.07"/><polygon class="cls-6" points="1751.38 358.87 1751.38 370.88 1790.97 351.16 1790.97 339.15 1751.38 358.87"/><polygon class="cls-5" points="1799.98 313.12 1799.98 342.27 1823.56 330.53 1823.56 301.36 1799.98 313.12"/><path class="cls-7" d="M616.07,282.9a5.81,5.81,0,0,1-2.63,4.55c-1.45.84-2.63.16-2.63-1.52a5.81,5.81,0,0,1,2.63-4.55C614.89,280.54,616.07,281.22,616.07,282.9Z" transform="translate(1203.31 40.3)"/><path class="cls-7" d="M608.22,287.17a5.81,5.81,0,0,1-2.63,4.55c-1.45.84-2.63.16-2.63-1.52a5.81,5.81,0,0,1,2.63-4.55C607,284.82,608.22,285.5,608.22,287.17Z" transform="translate(1203.31 40.3)"/><path class="cls-7" d="M616.07,273.79a5.81,5.81,0,0,1-2.63,4.55c-1.45.84-2.63.16-2.63-1.52a5.81,5.81,0,0,1,2.63-4.55C614.89,271.43,616.07,272.11,616.07,273.79Z" transform="translate(1203.31 40.3)"/><path class="cls-7" d="M608.22,278.06a5.81,5.81,0,0,1-2.63,4.55c-1.45.84-2.63.16-2.63-1.52a5.81,5.81,0,0,1,2.63-4.55C607,275.71,608.22,276.39,608.22,278.06Z" transform="translate(1203.31 40.3)"/><polygon class="cls-6" points="1832.09 292.89 1832.09 305.19 1844.22 299.15 1844.22 286.86 1832.09 292.89"/><polygon class="cls-6" points="1832.09 307.93 1832.09 317.81 1844.22 311.77 1844.22 301.9 1832.09 307.93"/><polygon class="cls-6" points="1832.09 320.22 1832.09 330.05 1844.22 324.01 1844.22 314.18 1832.09 320.22"/></g><g id="_1u-3" data-name="1u"><polygon class="cls-5" points="1745.36 289.22 1745.36 318.93 1853.27 265.19 1853.27 235.44 1745.36 289.22"/><polygon class="cls-6" points="1794.82 271.88 1794.82 284.19 1806.94 278.15 1806.94 265.86 1794.82 271.88"/><polygon class="cls-6" points="1833.29 252.76 1833.29 265.03 1845.41 258.99 1845.41 246.71 1833.29 252.76"/><path class="cls-7" d="M625.49,222.64a5.81,5.81,0,0,1-2.63,4.55c-1.45.84-2.63.16-2.63-1.52a5.81,5.81,0,0,1,2.63-4.55C624.31,220.29,625.49,221,625.49,222.64Z" transform="translate(1203.31 40.3)"/><path class="cls-7" d="M617.65,226.92a5.81,5.81,0,0,1-2.63,4.55c-1.45.84-2.63.16-2.63-1.52A5.81,5.81,0,0,1,615,225.4C616.47,224.57,617.65,225.25,617.65,226.92Z" transform="translate(1203.31 40.3)"/><polygon class="cls-4" points="1745.36 289.22 1745.36 318.93 1593.76 243.18 1593.76 213.25 1745.36 289.22"/><polygon class="cls-6" points="1745.36 289.22 1853.27 235.44 1702.07 159.15 1593.76 213.25 1745.36 289.22"/><polygon class="cls-6" points="1751.38 293.53 1751.38 305.82 1790.97 286.1 1790.97 273.83 1751.38 293.53"/></g><g id="_1u-4" data-name="1u"><polygon class="cls-5" points="1745.36 254.61 1745.36 284.32 1853.27 230.57 1853.27 200.82 1745.36 254.61"/><polygon class="cls-6" points="1794.82 237.27 1794.82 249.58 1806.94 243.54 1806.94 231.24 1794.82 237.27"/><polygon class="cls-6" points="1833.29 218.15 1833.29 230.42 1845.41 224.38 1845.41 212.09 1833.29 218.15"/><path class="cls-7" d="M625.49,188a5.81,5.81,0,0,1-2.63,4.55c-1.45.84-2.63.16-2.63-1.52a5.81,5.81,0,0,1,2.63-4.55C624.31,185.68,625.49,186.35,625.49,188Z" transform="translate(1203.31 40.3)"/><path class="cls-7" d="M617.65,192.31a5.81,5.81,0,0,1-2.63,4.55c-1.45.84-2.63.16-2.63-1.52a5.81,5.81,0,0,1,2.63-4.55C616.47,190,617.65,190.63,617.65,192.31Z" transform="translate(1203.31 40.3)"/><polygon class="cls-4" points="1745.36 254.61 1745.36 284.32 1593.76 208.57 1593.76 178.63 1745.36 254.61"/><polygon class="cls-6" points="1745.36 254.61 1853.27 200.82 1702.07 124.54 1593.76 178.63 1745.36 254.61"/><polygon class="cls-6" points="1751.38 258.92 1751.38 271.2 1790.97 251.49 1790.97 239.21 1751.38 258.92"/></g><path class="cls-8" d="M529.53,179.6V509.21L660.7,443.88l-.06-329.58Zm124.07,242L537.92,479.27l.1-278L653.6,143.69Z" transform="translate(1203.31 40.3)"/><polygon class="cls-9" points="1513.06 110.9 1513.06 440.61 1732.84 549.52 1732.84 219.91 1513.06 110.9"/><polygon class="cls-10" points="1732.84 219.91 1863.94 154.6 1646.29 44.53 1513.06 110.9 1732.84 219.91"/><path class="cls-11" d="M446.61,16.91,345.29,67.49c-.5.25-.7,1.09-.21,1.34l13.58,6.75a.68.68,0,0,0,.62,0L461,25a.68.68,0,0,0,0-1.22l-13.76-6.86A.68.68,0,0,0,446.61,16.91Z" transform="translate(1203.31 40.3)"/><path class="cls-9" d="M461.64,24.1,447.32,17a.88.88,0,0,0-.8,0L344.29,68c-.48.25,0,.44,0,.44l2.14,1.1L446.75,18.91a.83.83,0,0,1,.74,0l12.89,6.38,1.4-.7S462.13,24.34,461.64,24.1Z" transform="translate(1203.31 40.3)"/><path class="cls-11" d="M471.7,29.47,370.61,79.9c-.5.25-.88,1.2-.38,1.45l13.48,6.71a1,1,0,0,0,.74,0L486.29,37.4a.56.56,0,0,0,0-1.07l-14-7A.73.73,0,0,0,471.7,29.47Z" transform="translate(1203.31 40.3)"/><path class="cls-9" d="M486.82,36.61,472.5,29.47a.88.88,0,0,0-.8,0l-102.28,51c-.48.25,0,.44,0,.44l2.14,1.1L471.92,31.42a.83.83,0,0,1,.74,0l12.89,6.38,1.4-.7S487.3,36.85,486.82,36.61Z" transform="translate(1203.31 40.3)"/><path class="cls-11" d="M496.23,41.71,394.92,92.29a.75.75,0,0,0-.12,1.29l13.58,6.78a.53.53,0,0,0,.53,0L510.6,49.79a.68.68,0,0,0,0-1.22l-13.76-6.86A.68.68,0,0,0,496.23,41.71Z" transform="translate(1203.31 40.3)"/><path class="cls-9" d="M511.38,48.84l-14.32-7.13a.88.88,0,0,0-.8,0L394,92.72c-.48.25-.1.43-.1.43l2.24,1.11L496.49,43.66a.83.83,0,0,1,.74,0L510.12,50l1.4-.7S511.87,49.08,511.38,48.84Z" transform="translate(1203.31 40.3)"/><path class="cls-5" d="M590.9,177.58a2,2,0,0,1-2.88-1.76l-.1-6.39a2,2,0,0,1,.31-1.1l9.46-14.92a1.77,1.77,0,0,1,.71-.64l19.46-9.56a2,2,0,0,1,2.17.27l9.54,8.09a2,2,0,0,1,.71,1.52v4.09a1.55,1.55,0,0,1-.87,1.39Z" transform="translate(1203.31 40.3)"/><path class="cls-4" d="M617.49,142.24c-.76-.38-.78-.28-1.55.09L596.2,152a1.12,1.12,0,0,0-.46.42l-9.35,15.18a1.68,1.68,0,0,0-.25.9l.05,6.72a1.94,1.94,0,0,0,1.15,1.59l1.84.82A2.15,2.15,0,0,1,588,176v-1l-.1-5.57a1.91,1.91,0,0,1,.3-1l9.57-15.1a1.12,1.12,0,0,1,.45-.41L618,143.17a1.75,1.75,0,0,1,1.53,0Z" transform="translate(1203.31 40.3)"/><path class="cls-4" d="M379.28,383.69c-1.1-16.6-12.37-36.06-26.29-45.35-17.69-11.82-32.35-3.46-31,17.65,1.1,16.6,12.37,36.06,26.29,45.35C366,413.15,380.67,404.8,379.28,383.69Z" transform="translate(1203.31 40.3)"/><path class="cls-9" d="M353,338.34c-17.69-11.82-32.35-3.46-31,17.65,1.1,16.6,12.37,36.06,26.29,45.35,17.69,11.82,32.35,3.46,31-17.65C378.18,367.08,366.9,347.63,353,338.34ZM334.65,360.6a13.32,13.32,0,0,1,2.29-8.09l6.92,10.06a7,7,0,0,0-.6,3,12.8,12.8,0,0,0,.66,3.87l-6.77,2.41A29.67,29.67,0,0,1,334.65,360.6ZM355,365.48a16,16,0,0,0-2.37-2.68v-10a34.3,34.3,0,0,1,9.15,10.3Zm-6.31-5a4.72,4.72,0,0,0-2.36-.06l-7-10.14c2.46-1.4,5.72-1.42,9.34.16Zm-2.26,13.83a15.92,15.92,0,0,0,2.26,2.52v10a34.21,34.21,0,0,1-9-10.14Zm6.19,4.79a4.58,4.58,0,0,0,2.64,0l6.93,10.06c-2.49,1.54-5.83,1.62-9.57,0Zm5-2.34a7.2,7.2,0,0,0,.48-2.7,12.67,12.67,0,0,0-.6-3.68l6.78-2.42a29.55,29.55,0,0,1,2.42,11.07,13.57,13.57,0,0,1-2.11,7.86Zm9.74-9.9,3.77-1.34a46.7,46.7,0,0,1,4.35,18.58c0,5.6-1.42,10-3.87,13l-3.87-5.62c1.83-2.4,2.9-5.83,2.9-10.16A37.27,37.27,0,0,0,367.32,366.91Zm1.28-6.28L364.85,362a42.61,42.61,0,0,0-12.22-13.76v-5.57C358.89,346.82,364.51,353.32,368.6,360.63Zm-19.92-20.26v5.57c-4.91-2.28-9.28-2.2-12.49-.17l-3.87-5.62C336.45,337.32,342.22,337.22,348.69,340.36Zm-18.76,2,3.86,5.61c-1.94,2.41-3.07,5.92-3.07,10.39a37.38,37.38,0,0,0,3.35,14.62l-3.76,1.34a46.82,46.82,0,0,1-4.43-18.75C325.87,349.79,327.37,345.32,329.92,342.32Zm2.88,36.9,3.75-1.34a42.53,42.53,0,0,0,12.13,13.59V397C342.46,392.88,336.89,386.45,332.8,379.22Zm19.82,20.09v-5.57c5,2.33,9.48,2.19,12.71,0l3.86,5.61C365.06,402.34,359.2,402.51,352.62,399.31Z" transform="translate(1203.31 40.3)"/><path class="cls-4" d="M398.59,406.36v9.42a1,1,0,0,0,.54.87l9.69,4.83a1,1,0,0,0,1.41-.87v-9.42a1,1,0,0,0-.54-.87L400,405.48A1,1,0,0,0,398.59,406.36Z" transform="translate(1203.31 40.3)"/><path class="cls-4" d="M412.37,413.27v9.42a1,1,0,0,0,.54.87l9.69,4.83a1,1,0,0,0,1.41-.87V418.1a1,1,0,0,0-.54-.87l-9.69-4.83A1,1,0,0,0,412.37,413.27Z" transform="translate(1203.31 40.3)"/><path class="cls-4" d="M426.21,420.37v9.42a1,1,0,0,0,.54.87l9.69,4.83a1,1,0,0,0,1.41-.87v-9.42a1,1,0,0,0-.54-.87l-9.69-4.83A1,1,0,0,0,426.21,420.37Z" transform="translate(1203.31 40.3)"/><path class="cls-4" d="M440.07,427.11v9.42a1,1,0,0,0,.54.87l9.69,4.83a1,1,0,0,0,1.41-.87v-9.42a1,1,0,0,0-.54-.87l-9.69-4.83A1,1,0,0,0,440.07,427.11Z" transform="translate(1203.31 40.3)"/><path class="cls-4" d="M453.7,434.14v9.42a1,1,0,0,0,.54.87l9.69,4.83a1,1,0,0,0,1.41-.87V439a1,1,0,0,0-.54-.87l-9.69-4.83A1,1,0,0,0,453.7,434.14Z" transform="translate(1203.31 40.3)"/><path class="cls-4" d="M467.48,441.06v9.42a1,1,0,0,0,.54.87l9.69,4.83a1,1,0,0,0,1.41-.87v-9.42a1,1,0,0,0-.54-.87l-9.69-4.83A1,1,0,0,0,467.48,441.06Z" transform="translate(1203.31 40.3)"/><path class="cls-4" d="M481.32,448.15v9.42a1,1,0,0,0,.54.87l9.69,4.83a1,1,0,0,0,1.41-.87V453a1,1,0,0,0-.54-.87l-9.69-4.83A1,1,0,0,0,481.32,448.15Z" transform="translate(1203.31 40.3)"/><path class="cls-4" d="M495.17,454.89v9.42a1,1,0,0,0,.54.87l9.69,4.83a1,1,0,0,0,1.41-.87v-9.42a1,1,0,0,0-.54-.87L496.58,454A1,1,0,0,0,495.17,454.89Z" transform="translate(1203.31 40.3)"/><path class="cls-4" d="M398.59,391.91v9.44a1,1,0,0,0,.53.86l9.71,4.84a1,1,0,0,0,1.39-.86v-9.44a1,1,0,0,0-.53-.86L400,391A1,1,0,0,0,398.59,391.91Z" transform="translate(1203.31 40.3)"/><path class="cls-4" d="M412.37,398.83v9.44a1,1,0,0,0,.53.86l9.71,4.84a1,1,0,0,0,1.39-.86v-9.44a1,1,0,0,0-.53-.86L413.77,398A1,1,0,0,0,412.37,398.83Z" transform="translate(1203.31 40.3)"/><path class="cls-4" d="M426.21,405.92v9.44a1,1,0,0,0,.53.86l9.71,4.84a1,1,0,0,0,1.39-.86v-9.44a1,1,0,0,0-.53-.86l-9.71-4.84A1,1,0,0,0,426.21,405.92Z" transform="translate(1203.31 40.3)"/><path class="cls-4" d="M440.07,412.66v9.44a1,1,0,0,0,.53.86l9.71,4.84a1,1,0,0,0,1.39-.86V417.5a1,1,0,0,0-.53-.86l-9.71-4.84A1,1,0,0,0,440.07,412.66Z" transform="translate(1203.31 40.3)"/><path class="cls-4" d="M453.7,419.69v9.44a1,1,0,0,0,.53.86l9.71,4.84a1,1,0,0,0,1.39-.86v-9.44a1,1,0,0,0-.53-.86l-9.71-4.84A1,1,0,0,0,453.7,419.69Z" transform="translate(1203.31 40.3)"/><path class="cls-4" d="M467.48,426.61v9.44a1,1,0,0,0,.53.86l9.71,4.84a1,1,0,0,0,1.39-.86v-9.44a1,1,0,0,0-.53-.86l-9.71-4.84A1,1,0,0,0,467.48,426.61Z" transform="translate(1203.31 40.3)"/><path class="cls-4" d="M481.32,433.7v9.44a1,1,0,0,0,.53.86l9.71,4.84A1,1,0,0,0,493,448v-9.44a1,1,0,0,0-.53-.86l-9.71-4.84A1,1,0,0,0,481.32,433.7Z" transform="translate(1203.31 40.3)"/><path class="cls-4" d="M495.17,440.45v9.44a1,1,0,0,0,.53.86l9.71,4.84a1,1,0,0,0,1.39-.86v-9.44a1,1,0,0,0-.53-.86l-9.71-4.84A1,1,0,0,0,495.17,440.45Z" transform="translate(1203.31 40.3)"/><path class="cls-4" d="M398.59,378.05v8.46a1.4,1.4,0,0,0,.78,1.26l8.84,4.4a1.4,1.4,0,0,0,2-1.26v-8.46a1.4,1.4,0,0,0-.78-1.26l-8.84-4.4A1.4,1.4,0,0,0,398.59,378.05Z" transform="translate(1203.31 40.3)"/><path class="cls-4" d="M412.37,385v8.46a1.4,1.4,0,0,0,.78,1.26l8.84,4.4a1.4,1.4,0,0,0,2-1.26v-8.46a1.4,1.4,0,0,0-.78-1.26l-8.84-4.4A1.4,1.4,0,0,0,412.37,385Z" transform="translate(1203.31 40.3)"/><path class="cls-4" d="M426.21,392.06v8.46a1.4,1.4,0,0,0,.78,1.26l8.84,4.4a1.4,1.4,0,0,0,2-1.26v-8.46a1.4,1.4,0,0,0-.78-1.26l-8.84-4.4A1.4,1.4,0,0,0,426.21,392.06Z" transform="translate(1203.31 40.3)"/><path class="cls-4" d="M440.07,398.81v8.46a1.4,1.4,0,0,0,.78,1.26l8.84,4.4a1.4,1.4,0,0,0,2-1.26v-8.46a1.4,1.4,0,0,0-.78-1.26l-8.84-4.4A1.4,1.4,0,0,0,440.07,398.81Z" transform="translate(1203.31 40.3)"/><path class="cls-4" d="M453.7,405.83v8.46a1.4,1.4,0,0,0,.78,1.26l8.84,4.4a1.4,1.4,0,0,0,2-1.26v-8.46a1.4,1.4,0,0,0-.78-1.26l-8.84-4.4A1.4,1.4,0,0,0,453.7,405.83Z" transform="translate(1203.31 40.3)"/><path class="cls-4" d="M467.48,412.75v8.46a1.4,1.4,0,0,0,.78,1.26l8.84,4.4a1.4,1.4,0,0,0,2-1.26v-8.46a1.4,1.4,0,0,0-.78-1.26l-8.84-4.4A1.4,1.4,0,0,0,467.48,412.75Z" transform="translate(1203.31 40.3)"/><path class="cls-4" d="M481.32,419.84v8.46a1.4,1.4,0,0,0,.78,1.26l8.84,4.4a1.4,1.4,0,0,0,2-1.26v-8.46a1.4,1.4,0,0,0-.78-1.26l-8.84-4.4A1.4,1.4,0,0,0,481.32,419.84Z" transform="translate(1203.31 40.3)"/><path class="cls-4" d="M495.17,426.59V435a1.4,1.4,0,0,0,.78,1.26l8.84,4.4a1.4,1.4,0,0,0,2-1.26V431a1.4,1.4,0,0,0-.78-1.26l-8.84-4.4A1.4,1.4,0,0,0,495.17,426.59Z" transform="translate(1203.31 40.3)"/><rect class="cls-12" x="1952.31" y="267.29" width="1" height="168.06"/><polygon class="cls-12" points="1948.25 371.56 1948.14 372.18 2049.09 321.9 2049.2 321.28 1948.25 371.56"/><rect class="cls-12" x="762.47" y="158.13" width="0.99" height="223.48" transform="translate(1384.54 872.78) rotate(-63.52)"/></svg>