<svg xmlns="http://www.w3.org/2000/svg" xmlns:xlink="http://www.w3.org/1999/xlink" viewBox="0 0 2006.36 1158.38"><defs><style>.cls-1{opacity:0.44;}.cls-10,.cls-11,.cls-12,.cls-13,.cls-14,.cls-15,.cls-16,.cls-17,.cls-18,.cls-19,.cls-2,.cls-20,.cls-21,.cls-22,.cls-23,.cls-24,.cls-25,.cls-26,.cls-27,.cls-28,.cls-29,.cls-3,.cls-30,.cls-31,.cls-32,.cls-33,.cls-34,.cls-35,.cls-36,.cls-37,.cls-38,.cls-39,.cls-4,.cls-40,.cls-41,.cls-42,.cls-43,.cls-44,.cls-45,.cls-46,.cls-47,.cls-48,.cls-49,.cls-5,.cls-50,.cls-51,.cls-52,.cls-53,.cls-54,.cls-55,.cls-56,.cls-57,.cls-58,.cls-59,.cls-6,.cls-60,.cls-61,.cls-62,.cls-7,.cls-8,.cls-9{fill:none;stroke-miterlimit:10;}.cls-2{stroke:url(#무제_그라디언트_2);}.cls-3{stroke:url(#무제_그라디언트_2-2);}.cls-4{stroke:url(#무제_그라디언트_2-3);}.cls-5{stroke:url(#무제_그라디언트_2-4);}.cls-6{stroke:url(#무제_그라디언트_2-5);}.cls-7{stroke:url(#무제_그라디언트_2-6);}.cls-8{stroke:url(#무제_그라디언트_2-7);}.cls-9{stroke:url(#무제_그라디언트_2-8);}.cls-10{stroke:url(#무제_그라디언트_2-9);}.cls-11{stroke:url(#무제_그라디언트_2-10);}.cls-12{stroke:url(#무제_그라디언트_2-11);}.cls-13{stroke:url(#무제_그라디언트_2-12);}.cls-14{stroke:url(#무제_그라디언트_2-13);}.cls-15{stroke:url(#무제_그라디언트_2-14);}.cls-16{stroke:url(#무제_그라디언트_2-15);}.cls-17{stroke:url(#무제_그라디언트_2-16);}.cls-18{stroke:url(#무제_그라디언트_2-17);}.cls-19{stroke:url(#무제_그라디언트_2-18);}.cls-20{stroke:url(#무제_그라디언트_2-19);}.cls-21{stroke:url(#무제_그라디언트_2-20);}.cls-22{stroke:url(#무제_그라디언트_2-21);}.cls-23{stroke:url(#무제_그라디언트_2-22);}.cls-24{stroke:url(#무제_그라디언트_2-23);}.cls-25{stroke:url(#무제_그라디언트_2-24);}.cls-26{stroke:url(#무제_그라디언트_2-25);}.cls-27{stroke:url(#무제_그라디언트_2-26);}.cls-28{stroke:url(#무제_그라디언트_2-27);}.cls-29{stroke:url(#무제_그라디언트_2-28);}.cls-30{stroke:url(#무제_그라디언트_2-29);}.cls-31{stroke:url(#무제_그라디언트_2-30);}.cls-32{stroke:url(#무제_그라디언트_2-31);}.cls-33{stroke:url(#무제_그라디언트_2-32);}.cls-34{stroke:url(#무제_그라디언트_2-33);}.cls-35{stroke:url(#무제_그라디언트_2-34);}.cls-36{stroke:url(#무제_그라디언트_2-35);}.cls-37{stroke:url(#무제_그라디언트_2-36);}.cls-38{stroke:url(#무제_그라디언트_2-37);}.cls-39{stroke:url(#무제_그라디언트_2-38);}.cls-40{stroke:url(#무제_그라디언트_2-39);}.cls-41{stroke:url(#무제_그라디언트_2-40);}.cls-42{stroke:url(#무제_그라디언트_2-41);}.cls-43{stroke:url(#무제_그라디언트_2-42);}.cls-44{stroke:url(#무제_그라디언트_2-43);}.cls-45{stroke:url(#무제_그라디언트_2-44);}.cls-46{stroke:url(#무제_그라디언트_2-45);}.cls-47{stroke:url(#무제_그라디언트_2-46);}.cls-48{stroke:url(#무제_그라디언트_2-47);}.cls-49{stroke:url(#무제_그라디언트_2-48);}.cls-50{stroke:url(#무제_그라디언트_2-49);}.cls-51{stroke:url(#무제_그라디언트_2-50);}.cls-52{stroke:url(#무제_그라디언트_2-51);}.cls-53{stroke:url(#무제_그라디언트_2-52);}.cls-54{stroke:url(#무제_그라디언트_2-53);}.cls-55{stroke:url(#무제_그라디언트_2-54);}.cls-56{stroke:url(#무제_그라디언트_2-55);}.cls-57{stroke:url(#무제_그라디언트_2-56);}.cls-58{stroke:url(#무제_그라디언트_2-57);}.cls-59{stroke:url(#무제_그라디언트_2-58);}.cls-60{stroke:url(#무제_그라디언트_2-59);}.cls-61{stroke:url(#무제_그라디언트_2-60);}.cls-62{stroke:url(#무제_그라디언트_2-61);}</style><radialGradient id="무제_그라디언트_2" cx="1003.18" cy="579.19" r="819.09" gradientUnits="userSpaceOnUse"><stop offset="0" stop-color="#fff"/><stop offset="1"/></radialGradient><radialGradient id="무제_그라디언트_2-2" cx="536.06" cy="848.88" r="410.88" xlink:href="#무제_그라디언트_2"/><radialGradient id="무제_그라디언트_2-3" cx="568.27" cy="830.28" r="410.88" xlink:href="#무제_그라디언트_2"/><radialGradient id="무제_그라디언트_2-4" cx="600.49" cy="811.68" r="410.88" xlink:href="#무제_그라디언트_2"/><radialGradient id="무제_그라디언트_2-5" cx="632.71" cy="793.08" r="410.88" xlink:href="#무제_그라디언트_2"/><radialGradient id="무제_그라디언트_2-6" cx="664.92" cy="774.48" r="410.88" xlink:href="#무제_그라디언트_2"/><radialGradient id="무제_그라디언트_2-7" cx="697.14" cy="755.88" r="410.88" xlink:href="#무제_그라디언트_2"/><radialGradient id="무제_그라디언트_2-8" cx="729.35" cy="737.28" r="410.88" xlink:href="#무제_그라디언트_2"/><radialGradient id="무제_그라디언트_2-9" cx="761.57" cy="718.68" r="410.88" xlink:href="#무제_그라디언트_2"/><radialGradient id="무제_그라디언트_2-10" cx="793.78" cy="700.08" r="410.88" xlink:href="#무제_그라디언트_2"/><radialGradient id="무제_그라디언트_2-11" cx="826" cy="681.49" r="410.88" xlink:href="#무제_그라디언트_2"/><radialGradient id="무제_그라디언트_2-12" cx="858.21" cy="662.89" r="410.88" xlink:href="#무제_그라디언트_2"/><radialGradient id="무제_그라디언트_2-13" cx="890.43" cy="644.29" r="410.88" xlink:href="#무제_그라디언트_2"/><radialGradient id="무제_그라디언트_2-14" cx="922.64" cy="625.69" r="410.88" xlink:href="#무제_그라디언트_2"/><radialGradient id="무제_그라디언트_2-15" cx="954.86" cy="607.09" r="410.88" xlink:href="#무제_그라디언트_2"/><radialGradient id="무제_그라디언트_2-16" cx="987.07" cy="588.49" r="410.88" xlink:href="#무제_그라디언트_2"/><radialGradient id="무제_그라디언트_2-17" cx="1019.29" cy="569.89" r="410.88" xlink:href="#무제_그라디언트_2"/><radialGradient id="무제_그라디언트_2-18" cx="1051.51" cy="551.29" r="410.88" xlink:href="#무제_그라디언트_2"/><radialGradient id="무제_그라디언트_2-19" cx="1083.72" cy="532.69" r="410.88" xlink:href="#무제_그라디언트_2"/><radialGradient id="무제_그라디언트_2-20" cx="1115.94" cy="514.09" r="410.88" xlink:href="#무제_그라디언트_2"/><radialGradient id="무제_그라디언트_2-21" cx="1148.15" cy="495.49" r="410.88" xlink:href="#무제_그라디언트_2"/><radialGradient id="무제_그라디언트_2-22" cx="1180.37" cy="476.89" r="410.88" xlink:href="#무제_그라디언트_2"/><radialGradient id="무제_그라디언트_2-23" cx="1212.58" cy="458.29" r="410.88" xlink:href="#무제_그라디언트_2"/><radialGradient id="무제_그라디언트_2-24" cx="1244.8" cy="439.69" r="410.88" xlink:href="#무제_그라디언트_2"/><radialGradient id="무제_그라디언트_2-25" cx="1277.01" cy="421.09" r="410.88" xlink:href="#무제_그라디언트_2"/><radialGradient id="무제_그라디언트_2-26" cx="1309.23" cy="402.49" r="410.88" xlink:href="#무제_그라디언트_2"/><radialGradient id="무제_그라디언트_2-27" cx="1341.44" cy="383.89" r="410.88" xlink:href="#무제_그라디언트_2"/><radialGradient id="무제_그라디언트_2-28" cx="1373.66" cy="365.29" r="410.88" xlink:href="#무제_그라디언트_2"/><radialGradient id="무제_그라디언트_2-29" cx="1405.87" cy="346.69" r="410.88" xlink:href="#무제_그라디언트_2"/><radialGradient id="무제_그라디언트_2-30" cx="1438.09" cy="328.09" r="410.88" xlink:href="#무제_그라디언트_2"/><radialGradient id="무제_그라디언트_2-31" cx="1470.31" cy="309.49" r="410.88" xlink:href="#무제_그라디언트_2"/><radialGradient id="무제_그라디언트_2-32" cx="1473.58" cy="850.77" r="408.01" xlink:href="#무제_그라디언트_2"/><radialGradient id="무제_그라디언트_2-33" cx="1441.14" cy="832.04" r="408.01" xlink:href="#무제_그라디언트_2"/><radialGradient id="무제_그라디언트_2-34" cx="1408.7" cy="813.31" r="408.01" xlink:href="#무제_그라디언트_2"/><radialGradient id="무제_그라디언트_2-35" cx="1376.26" cy="794.58" r="408.01" xlink:href="#무제_그라디언트_2"/><radialGradient id="무제_그라디언트_2-36" cx="1343.82" cy="775.85" r="408.01" xlink:href="#무제_그라디언트_2"/><radialGradient id="무제_그라디언트_2-37" cx="1311.38" cy="757.12" r="408.01" xlink:href="#무제_그라디언트_2"/><radialGradient id="무제_그라디언트_2-38" cx="1278.94" cy="738.39" r="408.01" xlink:href="#무제_그라디언트_2"/><radialGradient id="무제_그라디언트_2-39" cx="1246.49" cy="719.66" r="408.01" xlink:href="#무제_그라디언트_2"/><radialGradient id="무제_그라디언트_2-40" cx="1214.05" cy="700.93" r="408.01" xlink:href="#무제_그라디언트_2"/><radialGradient id="무제_그라디언트_2-41" cx="1181.61" cy="682.2" r="408.01" xlink:href="#무제_그라디언트_2"/><radialGradient id="무제_그라디언트_2-42" cx="1149.17" cy="663.47" r="408.01" xlink:href="#무제_그라디언트_2"/><radialGradient id="무제_그라디언트_2-43" cx="1116.73" cy="644.74" r="408.01" xlink:href="#무제_그라디언트_2"/><radialGradient id="무제_그라디언트_2-44" cx="1084.29" cy="626.01" r="408.01" xlink:href="#무제_그라디언트_2"/><radialGradient id="무제_그라디언트_2-45" cx="1051.84" cy="607.28" r="408.01" xlink:href="#무제_그라디언트_2"/><radialGradient id="무제_그라디언트_2-46" cx="1019.4" cy="588.55" r="408.01" xlink:href="#무제_그라디언트_2"/><radialGradient id="무제_그라디언트_2-47" cx="986.96" cy="569.82" r="408.01" xlink:href="#무제_그라디언트_2"/><radialGradient id="무제_그라디언트_2-48" cx="954.52" cy="551.09" r="408.01" xlink:href="#무제_그라디언트_2"/><radialGradient id="무제_그라디언트_2-49" cx="922.08" cy="532.36" r="408.01" xlink:href="#무제_그라디언트_2"/><radialGradient id="무제_그라디언트_2-50" cx="889.64" cy="513.63" r="408.01" xlink:href="#무제_그라디언트_2"/><radialGradient id="무제_그라디언트_2-51" cx="857.2" cy="494.9" r="408.01" xlink:href="#무제_그라디언트_2"/><radialGradient id="무제_그라디언트_2-52" cx="824.75" cy="476.17" r="408.01" xlink:href="#무제_그라디언트_2"/><radialGradient id="무제_그라디언트_2-53" cx="792.31" cy="457.44" r="408.01" xlink:href="#무제_그라디언트_2"/><radialGradient id="무제_그라디언트_2-54" cx="759.87" cy="438.71" r="408.01" xlink:href="#무제_그라디언트_2"/><radialGradient id="무제_그라디언트_2-55" cx="727.43" cy="419.98" r="408.01" xlink:href="#무제_그라디언트_2"/><radialGradient id="무제_그라디언트_2-56" cx="694.99" cy="401.25" r="408.01" xlink:href="#무제_그라디언트_2"/><radialGradient id="무제_그라디언트_2-57" cx="662.55" cy="382.52" r="408.01" xlink:href="#무제_그라디언트_2"/><radialGradient id="무제_그라디언트_2-58" cx="630.1" cy="363.79" r="408.01" xlink:href="#무제_그라디언트_2"/><radialGradient id="무제_그라디언트_2-59" cx="597.66" cy="345.06" r="408.01" xlink:href="#무제_그라디언트_2"/><radialGradient id="무제_그라디언트_2-60" cx="565.22" cy="326.33" r="408.01" xlink:href="#무제_그라디언트_2"/><radialGradient id="무제_그라디언트_2-61" cx="532.78" cy="307.6" r="408.01" xlink:href="#무제_그라디언트_2"/></defs><title>자산 2</title><g id="레이어_2" data-name="레이어 2"><g id="레이어_1-2" data-name="레이어 1"><g class="cls-1"><polygon class="cls-2" points="999.68 0.58 2005.37 581.21 1006.69 1157.8 1 577.16 999.68 0.58"/><line class="cls-3" x1="33.22" y1="558.56" x2="1038.9" y2="1139.2"/><line class="cls-4" x1="65.43" y1="539.96" x2="1071.12" y2="1120.6"/><line class="cls-5" x1="97.65" y1="521.36" x2="1103.33" y2="1102"/><line class="cls-6" x1="129.86" y1="502.77" x2="1135.55" y2="1083.4"/><line class="cls-7" x1="162.08" y1="484.17" x2="1167.76" y2="1064.8"/><line class="cls-8" x1="194.29" y1="465.57" x2="1199.98" y2="1046.2"/><line class="cls-9" x1="226.51" y1="446.97" x2="1232.2" y2="1027.6"/><line class="cls-10" x1="258.72" y1="428.37" x2="1264.41" y2="1009"/><line class="cls-11" x1="290.94" y1="409.77" x2="1296.63" y2="990.4"/><line class="cls-12" x1="323.15" y1="391.17" x2="1328.84" y2="971.8"/><line class="cls-13" x1="355.37" y1="372.57" x2="1361.06" y2="953.2"/><line class="cls-14" x1="387.58" y1="353.97" x2="1393.27" y2="934.6"/><line class="cls-15" x1="419.8" y1="335.37" x2="1425.49" y2="916"/><line class="cls-16" x1="452.02" y1="316.77" x2="1457.7" y2="897.4"/><line class="cls-17" x1="484.23" y1="298.17" x2="1489.92" y2="878.8"/><line class="cls-18" x1="516.45" y1="279.57" x2="1522.13" y2="860.2"/><line class="cls-19" x1="548.66" y1="260.97" x2="1554.35" y2="841.61"/><line class="cls-20" x1="580.88" y1="242.37" x2="1586.56" y2="823.01"/><line class="cls-21" x1="613.09" y1="223.77" x2="1618.78" y2="804.41"/><line class="cls-22" x1="645.31" y1="205.17" x2="1651" y2="785.81"/><line class="cls-23" x1="677.52" y1="186.57" x2="1683.21" y2="767.21"/><line class="cls-24" x1="709.74" y1="167.97" x2="1715.43" y2="748.61"/><line class="cls-25" x1="741.95" y1="149.37" x2="1747.64" y2="730.01"/><line class="cls-26" x1="774.17" y1="130.77" x2="1779.86" y2="711.41"/><line class="cls-27" x1="806.38" y1="112.17" x2="1812.07" y2="692.81"/><line class="cls-28" x1="838.6" y1="93.58" x2="1844.29" y2="674.21"/><line class="cls-29" x1="870.82" y1="74.98" x2="1876.5" y2="655.61"/><line class="cls-30" x1="903.03" y1="56.38" x2="1908.72" y2="637.01"/><line class="cls-31" x1="935.25" y1="37.78" x2="1940.93" y2="618.41"/><line class="cls-32" x1="967.46" y1="19.18" x2="1973.15" y2="599.81"/><line class="cls-33" x1="1972.92" y1="562.48" x2="974.25" y2="1139.07"/><line class="cls-34" x1="1940.48" y1="543.75" x2="941.8" y2="1120.34"/><line class="cls-35" x1="1908.04" y1="525.02" x2="909.36" y2="1101.61"/><line class="cls-36" x1="1875.6" y1="506.29" x2="876.92" y2="1082.88"/><line class="cls-37" x1="1843.16" y1="487.56" x2="844.48" y2="1064.15"/><line class="cls-38" x1="1810.72" y1="468.83" x2="812.04" y2="1045.42"/><line class="cls-39" x1="1778.27" y1="450.1" x2="779.6" y2="1026.69"/><line class="cls-40" x1="1745.83" y1="431.37" x2="747.16" y2="1007.96"/><line class="cls-41" x1="1713.39" y1="412.64" x2="714.71" y2="989.23"/><line class="cls-42" x1="1680.95" y1="393.91" x2="682.27" y2="970.5"/><line class="cls-43" x1="1648.51" y1="375.18" x2="649.83" y2="951.77"/><line class="cls-44" x1="1616.07" y1="356.45" x2="617.39" y2="933.04"/><line class="cls-45" x1="1583.62" y1="337.72" x2="584.95" y2="914.31"/><line class="cls-46" x1="1551.18" y1="318.99" x2="552.51" y2="895.58"/><line class="cls-47" x1="1518.74" y1="300.26" x2="520.06" y2="876.85"/><line class="cls-48" x1="1486.3" y1="281.53" x2="487.62" y2="858.12"/><line class="cls-49" x1="1453.86" y1="262.8" x2="455.18" y2="839.39"/><line class="cls-50" x1="1421.42" y1="244.07" x2="422.74" y2="820.66"/><line class="cls-51" x1="1388.98" y1="225.34" x2="390.3" y2="801.93"/><line class="cls-52" x1="1356.53" y1="206.61" x2="357.86" y2="783.2"/><line class="cls-53" x1="1324.09" y1="187.88" x2="325.42" y2="764.46"/><line class="cls-54" x1="1291.65" y1="169.15" x2="292.97" y2="745.73"/><line class="cls-55" x1="1259.21" y1="150.42" x2="260.53" y2="727"/><line class="cls-56" x1="1226.77" y1="131.69" x2="228.09" y2="708.27"/><line class="cls-57" x1="1194.33" y1="112.96" x2="195.65" y2="689.54"/><line class="cls-58" x1="1161.88" y1="94.23" x2="163.21" y2="670.81"/><line class="cls-59" x1="1129.44" y1="75.5" x2="130.77" y2="652.08"/><line class="cls-60" x1="1097" y1="56.77" x2="98.32" y2="633.35"/><line class="cls-61" x1="1064.56" y1="38.04" x2="65.88" y2="614.62"/><line class="cls-62" x1="1032.12" y1="19.31" x2="33.44" y2="595.89"/></g></g></g></svg>