<?xml version="1.0" encoding="utf-8"?>
<!-- Svg Vector Icons : http://www.onlinewebfonts.com/icon -->
<!DOCTYPE svg PUBLIC "-//W3C//DTD SVG 1.1//EN" "http://www.w3.org/Graphics/SVG/1.1/DTD/svg11.dtd">
<svg version="1.1" xmlns="http://www.w3.org/2000/svg" xmlns:xlink="http://www.w3.org/1999/xlink" x="0px" y="0px" viewBox="0 0 1000 1000" enable-background="new 0 0 1000 1000" xml:space="preserve">
<metadata> Svg Vector Icons : http://www.onlinewebfonts.com/icon </metadata>
<g><g transform="translate(0.000000,511.000000) scale(0.100000,-0.100000)"><path d="M4560.2,4988.4c-93.4-11.4-268.7-41-387.1-68.3C2775,4603.6,1725.3,3576.6,1401.9,2212.6c-68.3-296-95.6-888.1-54.6-1186.4c59.2-405.3,216.3-888.1,396.2-1211.4c104.7-184.5,2962.5-4426.6,3039.9-4506.3c113.8-123,323.3-132.1,423.5-20.5c22.8,25,705.9,1031.5,1516.5,2238.4C7679.8-1052.7,8239.9-201.1,8312.8-53.1c491.9,992.8,478.2,2140.5-38.7,3124.2c-466.8,883.5-1329.8,1559.8-2322.6,1819.4C5528,4999.8,5002,5038.5,4560.2,4988.4z M5641.8,4334.9c906.3-195.8,1682.8-771.9,2088.1-1548.4c227.7-432.6,321.1-810.6,321.1-1302.5c2.3-485-82-853.9-286.9-1263.8c-70.6-143.5-1650.9-2523-2591.3-3900.6l-175.3-255L3658.5-1949.9C2920.7-856.9,2278.6,115.4,2230.8,208.8c-321.1,639.9-380.3,1461.9-152.6,2145c143.5,428.1,380.3,808.4,705.9,1134c473.6,473.6,1045.2,762.8,1742,879C4781.1,4410,5373.1,4391.8,5641.8,4334.9z"/><path d="M4715,3146.2c-439.5-75.1-860.7-323.3-1111.2-655.8c-232.3-312-341.6-633-341.6-1006.5c0-735.5,457.7-1352.6,1181.8-1594C5261.5-383.2,6183.7-9.8,6554.9,743.9c134.4,277.8,175.3,448.6,175.3,740c0,366.6-93.3,660.4-314.2,967.8C6047.1,2968.6,5350.4,3253.3,4715,3146.2z M5272.9,2520c441.8-113.9,769.6-460,840.2-883.5c52.4-316.5-61.5-644.4-305.1-890.3c-551-551.1-1489.2-398.5-1833,296c-84.2,175.3-86.5,182.2-86.5,441.8c0,259.6,2.3,266.4,86.5,437.2C4209.6,2397.1,4762.9,2652.1,5272.9,2520z"/></g></g>
</svg>