<svg xmlns="http://www.w3.org/2000/svg" xmlns:xlink="http://www.w3.org/1999/xlink" viewBox="0 0 21.69 19.74"><defs><style>.cls-1{fill:none;}.cls-2{isolation:isolate;}.cls-3{clip-path:url(#clip-path);}.cls-4{fill:#b08eb8;}.cls-5{fill:#b592bd;}.cls-6{fill:#b996c2;}.cls-7{fill:#be9ac7;}.cls-8{fill:#c39ecc;}.cls-9{fill:#c8a2d1;}.cls-10{fill:#cda5d6;}.cls-11{fill:#d2a9db;}.cls-12{fill:#d7ade0;}.cls-13{fill:#dcb1e6;}.cls-14{fill:#e0b5eb;}.cls-15{fill:#e5b9f0;}.cls-16{fill:#eabdf5;}.cls-17{fill:#efc1fa;}.cls-18{fill:#f4c5ff;}.cls-19{fill:#f5ccff;}.cls-20{fill:#f6cfff;}.cls-21{fill:#f6d1ff;}.cls-22{fill:#f7d3ff;}.cls-23{fill:#f7d5ff;}.cls-24{fill:#d2aadc;}.cls-25{clip-path:url(#clip-path-2);}.cls-26{fill:#ab8ab3;}.cls-27{fill:#a686ad;}.cls-28{fill:#a182a8;}.cls-29{fill:#9c7ea3;}.cls-30{fill:#977a9e;}.cls-31{fill:#927699;}.cls-32{fill:#8e7294;}.cls-33{fill:#896e8f;}.cls-34{fill:#846a8a;}.cls-35{fill:#7f6685;}.cls-36{fill:#bc98c5;}.cls-37{clip-path:url(#clip-path-3);}.cls-38{clip-path:url(#clip-path-4);}.cls-39{clip-path:url(#clip-path-5);}.cls-40{clip-path:url(#clip-path-6);}.cls-41{clip-path:url(#clip-path-7);}.cls-42{fill:#836a89;}.cls-43{clip-path:url(#clip-path-8);}.cls-44{fill:#deb3e8;}.cls-45{clip-path:url(#clip-path-9);}.cls-46{clip-path:url(#clip-path-10);}.cls-47{clip-path:url(#clip-path-11);}</style><clipPath id="clip-path"><path class="cls-1" d="M1.18,7.33l1.41-.82a.29.29,0,0,0,.16.28l-1.41.82A.29.29,0,0,1,1.18,7.33Z"/></clipPath><clipPath id="clip-path-2"><path class="cls-1" d="M4.79,7.47l-1.41.82a.74.74,0,0,1-.37.1,1.47,1.47,0,0,1-.74-.24l1.41-.82a1.47,1.47,0,0,0,.74.24A.74.74,0,0,0,4.79,7.47Z"/></clipPath><clipPath id="clip-path-3"><path class="cls-1" d="M5.65,8.78,4.24,9.6l.09-.06a1.55,1.55,0,0,0,.57-.81L6.3,7.91a1.55,1.55,0,0,1-.57.81Z"/></clipPath><clipPath id="clip-path-4"><path class="cls-1" d="M4.9,5.76l1.41-.82a6.38,6.38,0,0,1,.19,1.6,4,4,0,0,1-.2,1.37l-1.41.82a4,4,0,0,0,.2-1.37A6.38,6.38,0,0,0,4.9,5.76Z"/></clipPath><clipPath id="clip-path-5"><path class="cls-1" d="M2.25,2.11l1.41-.82a5.31,5.31,0,0,1,1.2.95l-1.41.82A5.31,5.31,0,0,0,2.25,2.11Z"/></clipPath><clipPath id="clip-path-6"><path class="cls-1" d="M4.34,4.31l1.41-.82a6,6,0,0,1,.56,1.45L4.9,5.76A6,6,0,0,0,4.34,4.31Z"/></clipPath><clipPath id="clip-path-7"><path class="cls-1" d="M3.45,3.06l1.41-.82a5.92,5.92,0,0,1,.89,1.25l-1.41.82A5.92,5.92,0,0,0,3.45,3.06Z"/></clipPath><clipPath id="clip-path-8"><path class="cls-1" d="M14.67,14.83l-1.41.82s.05-.06.05-.13l1.41-.82C14.72,14.77,14.71,14.81,14.67,14.83Z"/></clipPath><clipPath id="clip-path-9"><path class="cls-1" d="M16.47,9.82l-1.41.82a.12.12,0,0,0,0-.07l1.41-.82A.12.12,0,0,1,16.47,9.82Z"/></clipPath><clipPath id="clip-path-10"><path class="cls-1" d="M15.11,9.69l1.41-.82a2,2,0,0,1,0,.47,1.24,1.24,0,0,1-.05.41l-1.41.82a1.24,1.24,0,0,0,.05-.41A2,2,0,0,0,15.11,9.69Z"/></clipPath><clipPath id="clip-path-11"><path class="cls-1" d="M14.89,9.41l1.41-.82a.44.44,0,0,1,.22.28l-1.41.82A.44.44,0,0,0,14.89,9.41Z"/></clipPath></defs><title>data자산 3</title><g id="레이어_2" data-name="레이어 2"><g id="레이어_1-2" data-name="레이어 1"><g class="cls-2"><g class="cls-2"><g class="cls-3"><g class="cls-2"><path class="cls-4" d="M1.18,7.33l1.41-.82h0l-1.41.82h0"/><path class="cls-5" d="M1.18,7.34l1.41-.82h0l-1.41.82h0"/><path class="cls-6" d="M1.18,7.36l1.41-.82h0l-1.41.82h0"/><polyline class="cls-7" points="1.18 7.37 2.59 6.55 2.59 6.56 1.18 7.38 1.18 7.37"/><polyline class="cls-8" points="1.18 7.38 2.59 6.56 2.59 6.57 1.18 7.39 1.18 7.38"/><polyline class="cls-9" points="1.18 7.39 2.59 6.57 2.59 6.58 1.18 7.4 1.18 7.39"/><polyline class="cls-10" points="1.18 7.4 2.59 6.58 2.59 6.59 1.18 7.41 1.18 7.4"/><polyline class="cls-11" points="1.18 7.41 2.59 6.59 2.6 6.6 1.19 7.42 1.18 7.41"/><polyline class="cls-12" points="1.19 7.42 2.6 6.6 2.6 6.61 1.19 7.43 1.19 7.42"/><polyline class="cls-13" points="1.19 7.43 2.6 6.61 2.6 6.62 1.19 7.43 1.19 7.43"/><polyline class="cls-14" points="1.19 7.43 2.6 6.62 2.6 6.62 1.19 7.44 1.19 7.43"/><polyline class="cls-15" points="1.19 7.44 2.6 6.62 2.6 6.63 1.19 7.45 1.19 7.44"/><polyline class="cls-16" points="1.19 7.45 2.6 6.63 2.61 6.63 1.2 7.45 1.19 7.45"/><polyline class="cls-17" points="1.2 7.45 2.61 6.63 2.61 6.64 1.2 7.46 1.2 7.45"/><polyline class="cls-18" points="1.2 7.46 2.61 6.64 2.61 6.65 1.2 7.47 1.2 7.46"/><polyline class="cls-19" points="1.2 7.47 2.61 6.65 2.61 6.65 1.2 7.47 1.2 7.47"/><polyline class="cls-20" points="1.2 7.47 2.61 6.65 2.62 6.66 1.21 7.48 1.2 7.47"/><polyline class="cls-21" points="1.21 7.48 2.62 6.66 2.62 6.67 1.21 7.48 1.21 7.48"/><polyline class="cls-22" points="1.21 7.48 2.62 6.67 2.63 6.67 1.22 7.5 1.21 7.48"/><path class="cls-23" d="M1.22,7.49l1.41-.82h0l-1.41.82h0"/><polyline class="cls-22" points="1.22 7.51 2.63 6.69 2.64 6.7 1.23 7.52 1.22 7.51"/><polyline class="cls-21" points="1.23 7.52 2.64 6.7 2.65 6.7 1.24 7.52 1.23 7.52"/><polyline class="cls-20" points="1.24 7.52 2.65 6.7 2.65 6.71 1.24 7.53 1.24 7.52"/><polyline class="cls-19" points="1.24 7.53 2.65 6.71 2.65 6.71 1.25 7.53 1.24 7.53"/><polyline class="cls-18" points="1.25 7.53 2.65 6.71 2.66 6.72 1.25 7.54 1.25 7.53"/><polyline class="cls-17" points="1.25 7.54 2.66 6.72 2.67 6.73 1.26 7.55 1.25 7.54"/><polyline class="cls-16" points="1.26 7.55 2.67 6.73 2.67 6.73 1.26 7.55 1.26 7.55"/><polyline class="cls-15" points="1.26 7.55 2.67 6.73 2.68 6.74 1.27 7.56 1.26 7.55"/><polyline class="cls-14" points="1.27 7.56 2.68 6.74 2.69 6.75 1.28 7.57 1.27 7.56"/><polyline class="cls-13" points="1.28 7.57 2.69 6.75 2.7 6.75 1.29 7.57 1.28 7.57"/><polyline class="cls-12" points="1.29 7.57 2.7 6.75 2.71 6.76 1.3 7.58 1.29 7.57"/><polyline class="cls-11" points="1.3 7.58 2.71 6.76 2.72 6.77 1.31 7.59 1.3 7.58"/><path class="cls-10" d="M1.31,7.59l1.41-.82h0L1.32,7.6h0"/><path class="cls-9" d="M1.32,7.6l1.41-.82h0L1.33,7.6h0"/><polyline class="cls-8" points="1.33 7.6 2.74 6.78 2.74 6.79 1.33 7.61 1.33 7.6"/></g></g></g><polygon class="cls-24" points="1.33 7.61 2.74 6.79 3.68 7.33 2.27 8.15 1.33 7.61"/><g class="cls-2"><g class="cls-25"><g class="cls-2"><path class="cls-8" d="M2.27,8.15l1.41-.82.07,0-1.41.82-.07,0"/><path class="cls-7" d="M2.35,8.19l1.41-.82.09,0-1.41.82-.09,0"/><path class="cls-6" d="M2.43,8.23l1.41-.82.08,0-1.41.82-.08,0"/><path class="cls-5" d="M2.51,8.27l1.41-.82.07,0L2.58,8.3l-.07,0"/><path class="cls-4" d="M2.58,8.3,4,7.48l.07,0-1.41.82-.07,0"/><path class="cls-26" d="M2.65,8.33l1.41-.82.06,0-1.41.82-.06,0"/><path class="cls-27" d="M2.71,8.35l1.41-.82.06,0-1.41.82-.06,0"/><path class="cls-28" d="M2.77,8.36l1.41-.82h.06l-1.41.82H2.77"/><path class="cls-29" d="M2.83,8.38l1.41-.82h.06l-1.41.82H2.83"/><path class="cls-30" d="M2.88,8.38l1.41-.82h.05l-1.41.82H2.88"/><path class="cls-31" d="M2.94,8.39l1.41-.82h.06L3,8.39H2.94"/><path class="cls-32" d="M3,8.39l1.41-.82h.08l-1.41.82H3"/><path class="cls-33" d="M3.08,8.39l1.41-.82h.08l-1.41.82H3.08"/><path class="cls-34" d="M3.16,8.38l1.41-.82.1,0-1.41.82-.1,0"/><path class="cls-35" d="M3.26,8.35l1.41-.82.12-.06-1.41.82-.12.06"/></g></g></g><polygon class="cls-36" points="1.19 2.69 2.6 1.87 2.58 6.51 1.18 7.33 1.19 2.69"/><g class="cls-2"><g class="cls-37"><g class="cls-2"><path class="cls-32" d="M4.89,8.73,6.3,7.91l0,.05-1.41.82,0-.05"/><path class="cls-33" d="M4.87,8.78,6.28,8l-.08.18L4.8,9l.08-.18"/><path class="cls-34" d="M4.8,9l1.41-.82-.1.19-1.41.82L4.8,9"/><path class="cls-35" d="M4.69,9.15,6.1,8.33a1.31,1.31,0,0,1-.36.39l-.09.06L4.24,9.6l.09-.06a1.31,1.31,0,0,0,.36-.39"/></g></g></g><polygon class="cls-24" points="0.02 0.82 1.43 0 3.66 1.29 2.25 2.11 0.02 0.82"/><g class="cls-2"><g class="cls-38"><g class="cls-2"><path class="cls-12" d="M4.9,5.76l1.41-.82V5l-1.41.82v0"/><path class="cls-11" d="M4.91,5.79,6.32,5l0,.17L4.95,6l0-.17"/><path class="cls-10" d="M4.95,6l1.41-.82,0,.18L5,6.15l0-.18"/><path class="cls-9" d="M5,6.15,6.4,5.33l0,.18L5,6.33l0-.18"/><path class="cls-8" d="M5,6.33l1.41-.82,0,.19L5,6.52l0-.19"/><path class="cls-7" d="M5,6.52,6.45,5.7l0,.19-1.41.82,0-.19"/><path class="cls-6" d="M5.07,6.71l1.41-.82q0,.1,0,.21l-1.41.82q0-.1,0-.21"/><path class="cls-5" d="M5.08,6.92,6.49,6.1q0,.11,0,.22l-1.41.82q0-.11,0-.22"/><path class="cls-4" d="M5.09,7.14,6.5,6.32q0,.11,0,.22h0L5.1,7.37h0q0-.11,0-.22"/><path class="cls-26" d="M5.1,7.37,6.5,6.55q0,.12,0,.24l-1.41.82q0-.11,0-.24"/><path class="cls-27" d="M5.09,7.61,6.5,6.79q0,.11,0,.22l-1.41.82q0-.11,0-.22"/><path class="cls-28" d="M5.08,7.82,6.49,7q0,.1,0,.2L5.06,8q0-.1,0-.2"/><path class="cls-29" d="M5.06,8l1.41-.82q0,.1,0,.19L5,8.21q0-.09,0-.19"/><path class="cls-30" d="M5,8.21l1.41-.82,0,.18L5,8.39l0-.18"/><path class="cls-31" d="M5,8.39,6.4,7.57l0,.17-1.41.82,0-.17"/><path class="cls-32" d="M4.95,8.56l1.41-.82L6.3,7.9l-1.41.82.05-.17"/><polyline class="cls-33" points="4.89 8.72 6.3 7.9 6.3 7.91 4.89 8.73 4.89 8.72"/></g></g></g><g class="cls-2"><g class="cls-39"><g class="cls-2"><path class="cls-8" d="M2.25,2.11l1.41-.82,0,0-1.41.82,0,0"/><path class="cls-9" d="M2.29,2.13,3.7,1.31l.15.09-1.41.82-.15-.09"/><path class="cls-10" d="M2.44,2.23l1.41-.82L4,1.5l-1.41.82-.15-.1"/><path class="cls-11" d="M2.59,2.32,4,1.5l.14.1-1.41.82-.14-.1"/><path class="cls-12" d="M2.73,2.42,4.14,1.6l.14.11-1.41.82-.14-.11"/><path class="cls-13" d="M2.87,2.53l1.41-.82.14.11L3,2.64l-.14-.11"/><path class="cls-14" d="M3,2.64l1.41-.82.13.12-1.41.82L3,2.64"/><path class="cls-15" d="M3.14,2.76l1.41-.82.13.12-1.41.82-.13-.12"/><path class="cls-16" d="M3.27,2.87l1.41-.82.12.12L3.39,3l-.12-.12"/><path class="cls-17" d="M3.39,3,4.8,2.18l.06.06-1.41.82L3.39,3"/></g></g></g><g class="cls-2"><g class="cls-40"><g class="cls-2"><path class="cls-22" d="M4.34,4.31l1.41-.82,0,.06-1.41.82,0-.06"/><path class="cls-21" d="M4.38,4.37l1.41-.82.07.13-1.41.82-.07-.13"/><path class="cls-20" d="M4.45,4.51l1.41-.82.06.12L4.5,4.62l-.06-.12"/><path class="cls-19" d="M4.5,4.62,5.91,3.8,6,3.92l-1.41.82L4.5,4.62"/><path class="cls-18" d="M4.56,4.74,6,3.92,6,4l-1.41.82-.05-.12"/><path class="cls-17" d="M4.61,4.86,6,4l0,.12L4.66,5l0-.12"/><path class="cls-16" d="M4.66,5l1.41-.82,0,.13L4.7,5.11l0-.13"/><path class="cls-15" d="M4.7,5.11l1.41-.82,0,.14-1.41.82,0-.14"/><path class="cls-14" d="M4.75,5.25l1.41-.82,0,.15L4.8,5.41l0-.15"/><path class="cls-13" d="M4.8,5.41l1.41-.82,0,.17-1.41.82,0-.17"/><path class="cls-12" d="M4.85,5.57l1.41-.82,0,.18L4.9,5.75l0-.18"/><polyline class="cls-11" points="4.9 5.75 6.31 4.93 6.31 4.94 4.9 5.76 4.9 5.75"/></g></g></g><g class="cls-2"><g class="cls-41"><g class="cls-2"><path class="cls-18" d="M3.45,3.06l1.41-.82L5,2.36l-1.41.82-.11-.12"/><path class="cls-19" d="M3.56,3.18,5,2.36l.11.12-1.41.82-.11-.12"/><path class="cls-20" d="M3.67,3.31l1.41-.82.1.13-1.41.82-.1-.13"/><path class="cls-21" d="M3.77,3.43l1.41-.82.11.14-1.41.82-.11-.14"/><path class="cls-22" d="M3.88,3.58l1.41-.82.14.2L4,3.77l-.14-.2"/><path class="cls-23" d="M4,3.77,5.43,3l.21.34-1.41.82L4,3.77"/><path class="cls-22" d="M4.23,4.11l1.41-.82.11.19-1.41.82-.11-.19"/><polyline class="cls-21" points="4.34 4.3 5.75 3.49 5.75 3.49 4.34 4.31 4.34 4.3"/></g></g></g><path class="cls-42" d="M4.9,5.76a6.38,6.38,0,0,1,.19,1.6,4,4,0,0,1-.2,1.37,1.55,1.55,0,0,1-.57.81,1.28,1.28,0,0,1-.9.21,3,3,0,0,1-1.2-.43L1.08,8.66a1.37,1.37,0,0,1-.37-.37,4.88,4.88,0,0,1-.35-.52,4.34,4.34,0,0,1-.25-.51A1.33,1.33,0,0,1,0,6.81l0-6L2.25,2.11a5.31,5.31,0,0,1,1.2.95,5.92,5.92,0,0,1,.89,1.25A6,6,0,0,1,4.9,5.76ZM3.82,7.57a3.71,3.71,0,0,0,.1-.89,5.17,5.17,0,0,0-.09-1,4,4,0,0,0-.29-.93A3.36,3.36,0,0,0,3,3.95a2.65,2.65,0,0,0-.74-.62l-1.1-.63V7.33a.29.29,0,0,0,.16.28l.94.54A1.47,1.47,0,0,0,3,8.39a.72.72,0,0,0,.52-.21,1.35,1.35,0,0,0,.29-.6"/></g><g class="cls-2"><polygon class="cls-31" points="6.84 10.53 8.26 9.71 7.8 10.9 6.39 11.72 6.84 10.53"/><polygon class="cls-24" points="7.2 9.54 8.61 8.72 10.14 9.61 8.73 10.43 7.2 9.54"/><polygon class="cls-31" points="7.99 7.51 9.39 6.7 8.61 8.72 7.2 9.54 7.99 7.51"/><g class="cls-2"><g class="cls-43"><g class="cls-2"><polyline class="cls-4" points="13.32 15.52 14.72 14.7 14.72 14.7 13.32 15.52 13.32 15.52"/><path class="cls-26" d="M13.32,15.52l1.41-.82h0l-1.41.82h0"/><path class="cls-27" d="M13.32,15.54l1.41-.82h0l-1.41.82h0"/><path class="cls-28" d="M13.31,15.55l1.41-.82h0l-1.41.82h0"/><polyline class="cls-29" points="13.31 15.56 14.72 14.74 14.72 14.75 13.31 15.57 13.31 15.56"/><polyline class="cls-30" points="13.31 15.57 14.72 14.75 14.72 14.76 13.31 15.58 13.31 15.57"/><polyline class="cls-31" points="13.31 15.58 14.72 14.76 14.72 14.77 13.31 15.59 13.31 15.58"/><polyline class="cls-32" points="13.31 15.59 14.72 14.77 14.71 14.78 13.3 15.6 13.31 15.59"/><polyline class="cls-33" points="13.3 15.6 14.71 14.78 14.71 14.79 13.3 15.61 13.3 15.6"/><path class="cls-34" d="M13.3,15.61l1.41-.82h0l-1.41.82h0"/><path class="cls-35" d="M13.29,15.63l1.41-.82,0,0-1.41.82,0,0"/></g></g></g><path class="cls-42" d="M8.43,5.67l2.28,8.54-1.2-.69-.42-1.7L6.84,10.53l-.46,1.19L5.2,11,7.53,5.15ZM7.2,9.54l1.53.88L8,7.51l-.79,2"/><polygon class="cls-24" points="7.53 5.15 8.94 4.33 9.84 4.86 8.43 5.67 7.53 5.15"/><polygon class="cls-44" points="8.43 5.67 9.84 4.86 12.11 13.39 10.7 14.21 8.43 5.67"/><polygon class="cls-31" points="16.42 16.06 17.83 15.24 17.37 16.43 15.96 17.25 16.42 16.06"/><polygon class="cls-36" points="13.33 9.7 14.74 8.88 14.72 14.7 13.32 15.52 13.33 9.7"/><g class="cls-2"><g class="cls-45"><g class="cls-2"><polyline class="cls-32" points="15.11 10.57 16.52 9.75 16.52 9.75 15.11 10.57 15.11 10.57"/><path class="cls-33" d="M15.11,10.57l1.41-.82v0l-1.41.82v0"/><path class="cls-34" d="M15.1,10.59l1.41-.82v0l-1.41.82v0"/><path class="cls-35" d="M15.09,10.6l1.41-.82,0,0-1.41.82,0,0"/></g></g></g><polygon class="cls-24" points="16.78 15.07 18.19 14.25 19.72 15.14 18.31 15.96 16.78 15.07"/><polygon class="cls-24" points="10.45 6.84 11.86 6.02 16.3 8.59 14.89 9.41 10.45 6.84"/><g class="cls-2"><g class="cls-46"><g class="cls-2"><path class="cls-11" d="M15.11,9.69l1.41-.82v0l-1.41.82v0"/><path class="cls-10" d="M15.12,9.72l1.41-.82v0l-1.41.82v0"/><path class="cls-9" d="M15.13,9.77l1.41-.82V9l-1.41.82v0"/><path class="cls-8" d="M15.14,9.82,16.54,9V9l-1.41.82V9.82"/><path class="cls-7" d="M15.14,9.87,16.55,9v.06l-1.41.82V9.87"/><path class="cls-6" d="M15.15,9.93l1.41-.82v.07L15.16,10V9.93"/><path class="cls-5" d="M15.16,10l1.41-.82v.08l-1.41.82V10"/><path class="cls-4" d="M15.16,10.07l1.41-.82s0,.05,0,.08h0l-1.41.82h0s0-.06,0-.08"/><path class="cls-26" d="M15.16,10.16l1.41-.82s0,.06,0,.09l-1.41.82s0-.06,0-.09"/><path class="cls-27" d="M15.16,10.25l1.41-.82v.08l-1.41.82v-.08"/><path class="cls-28" d="M15.15,10.33l1.41-.82v.06l-1.41.82v-.06"/><path class="cls-29" d="M15.15,10.39l1.41-.82v.05l-1.41.82v-.05"/><path class="cls-30" d="M15.14,10.45l1.41-.82v0l-1.41.82v0"/><path class="cls-31" d="M15.13,10.49l1.41-.82v0l-1.41.82v0"/><path class="cls-32" d="M15.12,10.53l1.41-.82v0l-1.41.82v0"/><polyline class="cls-33" points="15.11 10.56 16.52 9.74 16.52 9.75 15.11 10.57 15.11 10.56"/></g></g></g><path class="cls-42" d="M14.89,9.41a.44.44,0,0,1,.22.28,2,2,0,0,1,0,.47,1.24,1.24,0,0,1-.05.41c0,.09-.1.1-.22,0l-1.56-.9,0,5.82c0,.12-.05.16-.15.14a1.71,1.71,0,0,1-.43-.19,2.43,2.43,0,0,1-.43-.31.43.43,0,0,1-.16-.31l0-5.83L10.45,8V6.84Z"/><g class="cls-2"><g class="cls-47"><g class="cls-2"><polyline class="cls-8" points="14.89 9.41 16.3 8.59 16.31 8.59 14.9 9.41 14.89 9.41"/><path class="cls-9" d="M14.9,9.41l1.41-.82h0l-1.41.82h0"/><path class="cls-10" d="M14.91,9.42l1.41-.82h0l-1.41.82h0"/><path class="cls-11" d="M14.93,9.43l1.41-.82h0l-1.41.82h0"/><path class="cls-12" d="M14.94,9.44l1.41-.82h0L15,9.45h0"/><path class="cls-13" d="M15,9.45l1.41-.82h0L15,9.46h0"/><polyline class="cls-14" points="14.97 9.46 16.38 8.64 16.39 8.65 14.98 9.47 14.97 9.46"/><polyline class="cls-15" points="14.98 9.47 16.39 8.65 16.4 8.66 14.99 9.48 14.98 9.47"/><polyline class="cls-16" points="14.99 9.48 16.4 8.66 16.41 8.67 15 9.49 14.99 9.48"/><polyline class="cls-17" points="15 9.49 16.41 8.67 16.42 8.68 15.01 9.5 15 9.49"/><polyline class="cls-18" points="15.01 9.5 16.42 8.68 16.43 8.69 15.02 9.51 15.01 9.5"/><polyline class="cls-19" points="15.02 9.51 16.43 8.69 16.43 8.7 15.02 9.52 15.02 9.51"/><polyline class="cls-20" points="15.02 9.52 16.43 8.7 16.44 8.71 15.03 9.52 15.02 9.52"/><polyline class="cls-21" points="15.03 9.52 16.44 8.71 16.45 8.71 15.04 9.53 15.03 9.52"/><path class="cls-22" d="M15,9.53l1.41-.82v0L15,9.55v0"/><path class="cls-23" d="M15,9.55l1.41-.82v0l-1.41.82v0"/><path class="cls-22" d="M15.06,9.57l1.41-.82h0l-1.41.82h0"/><polyline class="cls-21" points="15.07 9.59 16.48 8.77 16.49 8.78 15.08 9.6 15.07 9.59"/><polyline class="cls-20" points="15.08 9.6 16.49 8.78 16.49 8.79 15.08 9.61 15.08 9.6"/><polyline class="cls-19" points="15.08 9.61 16.49 8.79 16.49 8.79 15.09 9.62 15.08 9.61"/><polyline class="cls-18" points="15.09 9.62 16.49 8.79 16.5 8.8 15.09 9.62 15.09 9.62"/><polyline class="cls-17" points="15.09 9.62 16.5 8.8 16.5 8.81 15.09 9.63 15.09 9.62"/><polyline class="cls-16" points="15.09 9.63 16.5 8.81 16.51 8.82 15.1 9.64 15.09 9.63"/><polyline class="cls-15" points="15.1 9.64 16.51 8.82 16.51 8.84 15.1 9.65 15.1 9.64"/><path class="cls-14" d="M15.1,9.65l1.41-.82h0l-1.41.82h0"/><path class="cls-13" d="M15.1,9.67l1.41-.82h0l-1.41.82h0"/><polyline class="cls-12" points="15.11 9.68 16.52 8.86 16.52 8.87 15.11 9.69 15.11 9.68"/></g></g></g><polygon class="cls-31" points="17.56 13.04 18.97 12.22 18.19 14.25 16.78 15.07 17.56 13.04"/><path class="cls-42" d="M18,11.2l2.28,8.54L19.08,19l-.42-1.7-2.24-1.29L16,17.25l-1.19-.69,2.33-5.88Zm-1.23,3.87,1.53.88L17.56,13l-.79,2"/><polygon class="cls-44" points="18 11.2 19.41 10.38 21.69 18.92 20.28 19.74 18 11.2"/><polygon class="cls-24" points="17.1 10.68 18.51 9.86 19.41 10.38 18 11.2 17.1 10.68"/></g></g></g></svg>