<svg xmlns="http://www.w3.org/2000/svg" viewBox="0 0 89.87 67.52"><defs><style>.cls-1{fill:#2a0791;}.cls-2{fill:#571d8e;}</style></defs><title>router자산 1</title><g id="레이어_2" data-name="레이어 2"><g id="레이어_1-2" data-name="레이어 1"><path class="cls-1" d="M69.18,23.76A76.19,76.19,0,0,0,44.94,20a76.19,76.19,0,0,0-24.25,3.76H.13V42A12.8,12.8,0,0,0,0,43.76C0,56.88,20.12,67.52,44.94,67.52S89.87,56.88,89.87,43.76v-20Z"/><ellipse class="cls-2" cx="44.94" cy="23.76" rx="44.94" ry="23.76"/><polygon class="cls-1" points="18.32 13.62 19 17.62 24.87 13.56 34.09 18.15 37.45 17.61 28.23 13.02 32.84 10.71 17.62 9.1 18.32 13.62"/><polygon class="cls-1" points="74.29 32.72 73.6 28.72 68.99 31.02 59.77 26.43 55.15 28.73 64.37 33.32 59.77 35.62 74.99 37.24 74.29 32.72"/><polygon class="cls-1" points="53.4 15.8 63.2 10.92 58.3 8.47 72.7 8.81 73.24 15.92 68.09 13.36 58.3 18.24 53.4 15.8"/><polygon class="cls-1" points="38.7 28.14 28.91 33.05 33.82 35.48 19.41 35.18 18.86 28.08 24.01 30.62 33.79 25.71 38.7 28.14"/></g></g></svg>